<svg width="22" height="22" viewBox="0 0 22 22" fill="none" xmlns="http://www.w3.org/2000/svg">
<g clip-path="url(#clip0_6_409)">
<path d="M21.7826 11.253C21.7826 10.5052 21.7219 9.75345 21.5926 9.01782H11.217V13.2537H17.1586C16.9121 14.6199 16.1199 15.8284 14.9598 16.5964V19.3448H18.5046C20.5862 17.429 21.7826 14.5997 21.7826 11.253Z" fill="white"/>
<path d="M11.2174 22.0002C14.1842 22.0002 16.6861 21.0261 18.509 19.3447L14.9643 16.5962C13.9781 17.2671 12.7049 17.6471 11.2215 17.6471C8.35175 17.6471 5.91853 15.711 5.04548 13.108H1.38757V15.9414C3.25493 19.6559 7.05834 22.0002 11.2174 22.0002V22.0002Z" fill="white"/>
<path d="M5.0414 13.1085C4.58063 11.7423 4.58063 10.263 5.0414 8.89684V6.06348H1.38753C-0.172635 9.17169 -0.172635 12.8336 1.38753 15.9418L5.0414 13.1085V13.1085Z" fill="white"/>
<path d="M11.2175 4.35373C12.7858 4.32948 14.3015 4.9196 15.4372 6.00282L18.5778 2.86228C16.5892 0.994924 13.9498 -0.0317159 11.2175 0.000619207C7.0584 0.000619207 3.25499 2.34491 1.38763 6.06345L5.0415 8.89682C5.91051 6.2898 8.34777 4.35373 11.2175 4.35373V4.35373Z" fill="white"/>
</g>
<defs>
<clipPath id="clip0_6_409">
<rect width="22" height="22" fill="white"/>
</clipPath>
</defs>
</svg>
